<svg xmlns="http://www.w3.org/2000/svg" xmlns:xlink="http://www.w3.org/1999/xlink" version="1.1" x="0px" y="0px" viewBox="0 0 100 125" enable-background="new 0 0 100 100" xml:space="preserve"><path d="M50,5C25.1,5,5,25.1,5,50c0,24.9,20.1,45,45,45s45-20.1,45-45C95,25.1,74.9,5,50,5z M18.1,29h63.7c1.7,0,3.1,1.3,3.1,3  s-1.4,3-3.1,3H18.1c-1.7,0-3.1-1.3-3.1-3S16.4,29,18.1,29z M81.9,71H18.1c-1.7,0-3.1-1.3-3.1-3s1.4-3,3.1-3h63.7  c1.7,0,3.1,1.3,3.1,3S83.6,71,81.9,71z M81.9,53H18.1c-1.7,0-3.1-1.3-3.1-3s1.4-3,3.1-3h63.7c1.7,0,3.1,1.3,3.1,3S83.6,53,81.9,53z"/><text x="0" y="115" fill="#000000" font-size="5px" font-weight="bold" font-family="'Helvetica Neue', Helvetica, Arial-Unicode, Arial, Sans-serif">Created by Nimal Raj</text><text x="0" y="120" fill="#000000" font-size="5px" font-weight="bold" font-family="'Helvetica Neue', Helvetica, Arial-Unicode, Arial, Sans-serif">from the Noun Project</text></svg>